<?xml version="1.0" encoding="UTF-8"?>
<svg width="26px" height="30px" viewBox="0 0 26 30" version="1.1" xmlns="http://www.w3.org/2000/svg" xmlns:xlink="http://www.w3.org/1999/xlink">
    <!-- Generator: Sketch 57.1 (83088) - https://sketch.com -->
    <title>icon</title>
    <desc>Created with Sketch.</desc>
    <defs>
        <radialGradient cx="3.3059934%" cy="3.14330166%" fx="3.3059934%" fy="3.14330166%" r="162.047097%" gradientTransform="translate(0.033060,0.031433),scale(1.000000,0.866667),rotate(49.094330),translate(-0.033060,-0.031433)" id="radialGradient-1">
            <stop stop-color="#63A6FF" offset="0%"></stop>
            <stop stop-color="#236BDD" offset="100%"></stop>
        </radialGradient>
    </defs>
    <g id="Website" stroke="none" stroke-width="1" fill="none" fill-rule="evenodd">
        <g id="8-Jobs_offer_form" transform="translate(-790.000000, -2029.000000)">
            <g id="Submit_your_application" transform="translate(409.000000, 1886.000000)">
                <g id="icon" transform="translate(381.000000, 143.000000)">
                    <path d="M1.85712913,0 L16.9993286,0 L26,9.00469971 L26,28.1250182 C26,29.1609192 25.1680438,30 24.1428709,30 L1.85712913,30 C0.831956188,30 0,29.1609192 0,28.1250182 L0,1.87498181 C0,0.839080794 0.832052267,0 1.85712913,0 Z" id="Shape" fill="url(#radialGradient-1)" fill-rule="nonzero"></path>
                    <path d="M12.6133808,18.085752 C12.6133808,18.3166238 12.5551917,18.5664564 12.4388118,18.8352573 C12.322432,19.1040581 12.1394315,19.3679077 11.8898051,19.626814 C11.6401787,19.8857203 11.3214037,20.0959754 10.9334708,20.2575858 C10.5455378,20.4191961 10.0935183,20.5 9.5773988,20.5 C9.1860925,20.5 8.8302115,20.4637207 8.50974513,20.3911609 C8.18927876,20.3186012 7.89833339,20.2056406 7.6369003,20.0522757 C7.37546721,19.8989108 7.13512104,19.696901 6.91585457,19.4462401 C6.72020142,19.2186664 6.55322408,18.9638866 6.41491754,18.6818931 C6.276611,18.3998996 6.17288265,18.0989462 6.10372939,17.7790237 C6.03457612,17.4591013 6,17.1193949 6,16.7598945 C6,16.1761185 6.08686195,15.6533664 6.26058846,15.1916227 C6.43431496,14.729879 6.68309433,14.3349291 7.00693403,14.0067612 C7.33077373,13.6785933 7.71026769,13.4287608 8.14542729,13.2572559 C8.58058688,13.0857511 9.04441283,13 9.53691904,13 C10.1373718,13 10.6720366,13.1170833 11.1409295,13.3512533 C11.6098224,13.5854233 11.9690767,13.8748334 12.2187031,14.2194921 C12.4683296,14.5641508 12.5931409,14.8898402 12.5931409,15.1965699 C12.5931409,15.3647766 12.5324219,15.513192 12.410982,15.6418206 C12.2895421,15.7704492 12.1428045,15.8347625 11.9707646,15.8347625 C11.7784848,15.8347625 11.6342771,15.7902379 11.5381372,15.7011873 C11.4419973,15.6121368 11.3348956,15.4587742 11.2168291,15.241095 C11.0211759,14.8815945 10.7909496,14.6127977 10.5261432,14.4346966 C10.2613368,14.2565954 9.93497195,14.1675462 9.54703898,14.1675462 C8.92971955,14.1675462 8.43806405,14.3967655 8.07205772,14.8552111 C7.70605139,15.3136566 7.52305097,15.9650354 7.52305097,16.8093668 C7.52305097,17.3733537 7.60400969,17.8425113 7.76592954,18.2168536 C7.92784939,18.5911958 8.1572324,18.8707115 8.45408546,19.055409 C8.75093852,19.2401065 9.09838632,19.3324538 9.49643928,19.3324538 C9.92822555,19.3324538 10.2933831,19.2277385 10.5919228,19.0183047 C10.8904625,18.808871 11.1156289,18.5013213 11.2674288,18.0956464 C11.3315221,17.9043526 11.4107941,17.7485164 11.5052474,17.6281332 C11.5997006,17.5077501 11.7514982,17.4475594 11.9606447,17.4475594 C12.1394312,17.4475594 12.2929154,17.5085746 12.4211019,17.6306069 C12.5492885,17.7526391 12.6133808,17.9043527 12.6133808,18.085752 Z M15.0624063,13.9647098 L16.7423163,18.8278364 L18.4272864,13.9300792 C18.5149929,13.6728219 18.5807719,13.4938989 18.6246252,13.3933047 C18.6684785,13.2927106 18.741004,13.2020123 18.8422039,13.1212071 C18.9434038,13.040402 19.0817083,13 19.2571214,13 C19.385308,13 19.5042161,13.0313321 19.6138493,13.0939974 C19.7234826,13.1566626 19.8095012,13.2399401 19.8719078,13.3438325 C19.9343144,13.4477248 19.9655172,13.5524401 19.9655172,13.6579815 C19.9655172,13.7305413 19.9553974,13.8088716 19.9351574,13.8929749 C19.9149174,13.9770783 19.8896178,14.0595313 19.8592579,14.1403364 C19.8288979,14.2211416 19.7985384,14.3044191 19.7681784,14.3901715 L17.9718891,19.1296174 C17.9077958,19.3110167 17.8437035,19.4833435 17.7796102,19.6466029 C17.7155169,19.8098623 17.6413048,19.9533305 17.5569715,20.0770119 C17.4726383,20.2006932 17.3604767,20.3021104 17.2204835,20.3812665 C17.0804903,20.4604226 16.9092964,20.5 16.7068966,20.5 C16.5044967,20.5 16.3333028,20.4612471 16.1933096,20.3837401 C16.0533164,20.3062331 15.9403115,20.2039914 15.8542916,20.0770119 C15.7682717,19.9500323 15.6932162,19.8057396 15.6291229,19.6441293 C15.5650297,19.482519 15.5009374,19.3110167 15.4368441,19.1296174 L13.6709145,14.4297493 C13.6405546,14.3439969 13.6093517,14.2598949 13.5773051,14.1774406 C13.5452585,14.0949864 13.5182722,14.0059372 13.4963456,13.9102902 C13.4744189,13.8146433 13.4634558,13.7338394 13.4634558,13.667876 C13.4634558,13.4996693 13.532608,13.3463068 13.6709145,13.2077836 C13.8092211,13.0692605 13.982945,13 14.1920915,13 C14.4484646,13 14.6297783,13.0766813 14.7360382,13.2300462 C14.8422981,13.3834111 14.9510864,13.6282965 15.0624063,13.9647098 Z" id="CV" fill="#FFFFFF"></path>
                    <path d="M26,9 L18.9845505,9 C17.8770064,9 17,8.10205328 17,6.9955639 L17,0 L26,9 Z" id="Shape" fill="#72ADFF" fill-rule="nonzero"></path>
                </g>
            </g>
        </g>
    </g>
</svg>