<svg width="90" height="63" xmlns="http://www.w3.org/2000/svg" xmlns:xlink="http://www.w3.org/1999/xlink"><defs><path id="a" d="M.044.704H89.62V63H.044z"/></defs><g fill="none" fill-rule="evenodd"><mask id="b" fill="#fff"><use xlink:href="#a"/></mask><path d="M87.747 10.43c-1.03-3.827-4.067-6.843-7.923-7.867C72.835.704 44.81.704 44.81.704s-28.025 0-35.014 1.86C5.94 3.586 2.904 6.602 1.873 10.43 0 17.37 0 31.85 0 31.85s0 14.481 1.873 21.421c1.03 3.829 4.067 6.845 7.923 7.868C16.785 63 44.81 63 44.81 63s28.025 0 35.014-1.86c3.856-1.023 6.892-4.04 7.923-7.868 1.873-6.94 1.873-21.42 1.873-21.42s0-14.48-1.873-21.421" fill="red" mask="url(#b)"/><path fill="#FFFFFE" d="M35.848 45.201l23.283-13.349-23.283-13.35v26.699"/></g></svg>