<svg width="26" height="30" xmlns="http://www.w3.org/2000/svg"><defs><radialGradient cx="3.306%" cy="3.143%" fx="3.306%" fy="3.143%" r="162.047%" gradientTransform="scale(1 .86667) rotate(49.094 .028 .034)" id="a"><stop stop-color="#63A6FF" offset="0%"/><stop stop-color="#236BDD" offset="100%"/></radialGradient></defs><g fill="none" fill-rule="evenodd"><path d="M1.857 0H17l9 9.005v19.12A1.866 1.866 0 0124.143 30H1.857A1.866 1.866 0 010 28.125V1.875C0 .839.832 0 1.857 0z" fill="url(#a)" fill-rule="nonzero"/><path d="M12.613 18.086c0 .23-.058.48-.174.75a2.805 2.805 0 01-1.505 1.422c-.388.161-.84.242-1.357.242-.39 0-.747-.036-1.067-.109a3.04 3.04 0 01-.873-.339 2.928 2.928 0 01-.721-.606 3.593 3.593 0 01-.501-.764 3.925 3.925 0 01-.311-.903c-.07-.32-.104-.66-.104-1.02 0-.583.087-1.106.26-1.567a3.26 3.26 0 011.885-1.934A3.76 3.76 0 019.537 13c.6 0 1.135.117 1.604.351.469.234.828.524 1.078.868.25.345.374.67.374.978a.63.63 0 01-.182.445.583.583 0 01-.44.193c-.193 0-.337-.045-.433-.134-.096-.089-.203-.242-.321-.46-.196-.36-.426-.628-.69-.806-.266-.178-.592-.267-.98-.267-.617 0-1.109.229-1.475.687-.366.459-.549 1.11-.549 1.954 0 .564.081 1.034.243 1.408.162.374.391.654.688.838.297.185.644.277 1.042.277.432 0 .797-.104 1.096-.314.298-.21.524-.517.675-.922.065-.192.144-.347.238-.468.095-.12.246-.18.456-.18a.64.64 0 01.46.183.603.603 0 01.192.455zm2.45-4.121l1.68 4.863 1.684-4.898c.088-.257.154-.436.198-.537a.717.717 0 01.217-.272.653.653 0 01.415-.121c.128 0 .247.031.357.094a.7.7 0 01.258.25.605.605 0 01.094.314c0 .073-.01.15-.03.235a2.08 2.08 0 01-.077.247l-.09.25-1.797 4.74a16.03 16.03 0 01-.192.517 2.168 2.168 0 01-.223.43.988.988 0 01-.337.304 1.03 1.03 0 01-.513.119c-.203 0-.374-.039-.514-.116a.97.97 0 01-.339-.307 2.244 2.244 0 01-.225-.433 14.51 14.51 0 01-.192-.514l-1.766-4.7a8.847 8.847 0 00-.094-.253 1.924 1.924 0 01-.08-.267 1.117 1.117 0 01-.034-.242.64.64 0 01.208-.46.706.706 0 01.521-.208c.256 0 .438.077.544.23.106.153.215.398.326.735z" fill="#FFF"/><path d="M26 9h-7.015A1.988 1.988 0 0117 6.996V0l9 9z" fill="#72ADFF" fill-rule="nonzero"/></g></svg>